<svg xmlns="http://www.w3.org/2000/svg" xmlns:xlink="http://www.w3.org/1999/xlink" width="160" zoomAndPan="magnify" viewBox="0 0 120 37.5" height="50" preserveAspectRatio="xMidYMid meet" version="1.0"><defs><g/><clipPath id="f9945948f9"><rect x="0" width="98" y="0" height="21"/></clipPath><clipPath id="4d96d8dcd8"><path d="M 4.488281 10.488281 L 19.5625 10.488281 L 19.5625 26.503906 L 4.488281 26.503906 Z M 4.488281 10.488281 " clip-rule="nonzero"/></clipPath><clipPath id="b05ee26c15"><path d="M 12.027344 15.226562 C 13.613281 9.863281 16.785156 9.863281 18.371094 11.523438 C 19.957031 13.183594 19.957031 16.5 18.371094 19.820312 C 17.261719 22.308594 14.40625 24.796875 12.027344 26.457031 C 9.644531 24.796875 6.789062 22.308594 5.679688 19.820312 C 4.09375 16.5 4.09375 13.183594 5.679688 11.523438 C 7.265625 9.863281 10.441406 9.863281 12.027344 15.226562 Z M 12.027344 15.226562 " clip-rule="nonzero"/></clipPath><clipPath id="68d3b223ea"><path d="M 0.488281 0.488281 L 15.5625 0.488281 L 15.5625 16.503906 L 0.488281 16.503906 Z M 0.488281 0.488281 " clip-rule="nonzero"/></clipPath><clipPath id="97767ee00e"><path d="M 8.027344 5.226562 C 9.613281 -0.136719 12.785156 -0.136719 14.371094 1.523438 C 15.957031 3.183594 15.957031 6.5 14.371094 9.820312 C 13.261719 12.308594 10.40625 14.796875 8.027344 16.457031 C 5.644531 14.796875 2.789062 12.308594 1.679688 9.820312 C 0.09375 6.5 0.09375 3.183594 1.679688 1.523438 C 3.265625 -0.136719 6.441406 -0.136719 8.027344 5.226562 Z M 8.027344 5.226562 " clip-rule="nonzero"/></clipPath><clipPath id="32c512d3cd"><rect x="0" width="16" y="0" height="17"/></clipPath></defs><g transform="matrix(1, 0, 0, 1, 20, 8)"><g clip-path="url(#f9945948f9)"><g fill="#d6bd9f" fill-opacity="1"><g transform="translate(2.069931, 15.683076)"><g><path d="M 11.921875 -9.765625 L 11.921875 0 L 9.546875 0 L 9.546875 -5.859375 L 7.359375 0 L 5.4375 0 L 3.234375 -5.875 L 3.234375 0 L 0.859375 0 L 0.859375 -9.765625 L 3.671875 -9.765625 L 6.40625 -3 L 9.125 -9.765625 Z M 11.921875 -9.765625 "/></g></g></g><g fill="#d6bd9f" fill-opacity="1"><g transform="translate(14.839957, 15.683076)"><g><path d="M 2.0625 -8.5625 C 1.644531 -8.5625 1.300781 -8.679688 1.03125 -8.921875 C 0.769531 -9.171875 0.640625 -9.476562 0.640625 -9.84375 C 0.640625 -10.21875 0.769531 -10.523438 1.03125 -10.765625 C 1.300781 -11.015625 1.644531 -11.140625 2.0625 -11.140625 C 2.46875 -11.140625 2.800781 -11.015625 3.0625 -10.765625 C 3.332031 -10.523438 3.46875 -10.21875 3.46875 -9.84375 C 3.46875 -9.476562 3.332031 -9.171875 3.0625 -8.921875 C 2.800781 -8.679688 2.46875 -8.5625 2.0625 -8.5625 Z M 3.234375 -7.765625 L 3.234375 0 L 0.859375 0 L 0.859375 -7.765625 Z M 3.234375 -7.765625 "/></g></g></g><g fill="#d6bd9f" fill-opacity="1"><g transform="translate(18.943619, 15.683076)"><g><path d="M 5.59375 -7.84375 C 6.5 -7.84375 7.222656 -7.546875 7.765625 -6.953125 C 8.304688 -6.367188 8.578125 -5.5625 8.578125 -4.53125 L 8.578125 0 L 6.21875 0 L 6.21875 -4.21875 C 6.21875 -4.738281 6.082031 -5.140625 5.8125 -5.421875 C 5.539062 -5.710938 5.179688 -5.859375 4.734375 -5.859375 C 4.273438 -5.859375 3.910156 -5.710938 3.640625 -5.421875 C 3.367188 -5.140625 3.234375 -4.738281 3.234375 -4.21875 L 3.234375 0 L 0.859375 0 L 0.859375 -7.765625 L 3.234375 -7.765625 L 3.234375 -6.734375 C 3.484375 -7.078125 3.8125 -7.347656 4.21875 -7.546875 C 4.625 -7.742188 5.082031 -7.84375 5.59375 -7.84375 Z M 5.59375 -7.84375 "/></g></g></g><g fill="#d6bd9f" fill-opacity="1"><g transform="translate(28.319435, 15.683076)"><g><path d="M 0.390625 -3.890625 C 0.390625 -4.691406 0.539062 -5.390625 0.84375 -5.984375 C 1.144531 -6.585938 1.550781 -7.050781 2.0625 -7.375 C 2.582031 -7.707031 3.164062 -7.875 3.8125 -7.875 C 4.320312 -7.875 4.785156 -7.765625 5.203125 -7.546875 C 5.628906 -7.335938 5.960938 -7.050781 6.203125 -6.6875 L 6.203125 -10.296875 L 8.578125 -10.296875 L 8.578125 0 L 6.203125 0 L 6.203125 -1.109375 C 5.984375 -0.742188 5.664062 -0.445312 5.25 -0.21875 C 4.832031 0 4.351562 0.109375 3.8125 0.109375 C 3.164062 0.109375 2.582031 -0.0507812 2.0625 -0.375 C 1.550781 -0.707031 1.144531 -1.175781 0.84375 -1.78125 C 0.539062 -2.394531 0.390625 -3.097656 0.390625 -3.890625 Z M 6.203125 -3.875 C 6.203125 -4.46875 6.035156 -4.9375 5.703125 -5.28125 C 5.378906 -5.625 4.976562 -5.796875 4.5 -5.796875 C 4.03125 -5.796875 3.628906 -5.625 3.296875 -5.28125 C 2.972656 -4.945312 2.8125 -4.484375 2.8125 -3.890625 C 2.8125 -3.296875 2.972656 -2.820312 3.296875 -2.46875 C 3.628906 -2.125 4.03125 -1.953125 4.5 -1.953125 C 4.976562 -1.953125 5.378906 -2.125 5.703125 -2.46875 C 6.035156 -2.8125 6.203125 -3.28125 6.203125 -3.875 Z M 6.203125 -3.875 "/></g></g></g><g fill="#d6bd9f" fill-opacity="1"><g transform="translate(37.764806, 15.683076)"><g><path d="M 6.765625 -5 C 7.335938 -4.882812 7.796875 -4.601562 8.140625 -4.15625 C 8.484375 -3.71875 8.65625 -3.21875 8.65625 -2.65625 C 8.65625 -1.84375 8.367188 -1.195312 7.796875 -0.71875 C 7.222656 -0.238281 6.425781 0 5.40625 0 L 0.859375 0 L 0.859375 -9.765625 L 5.25 -9.765625 C 6.25 -9.765625 7.023438 -9.535156 7.578125 -9.078125 C 8.140625 -8.628906 8.421875 -8.015625 8.421875 -7.234375 C 8.421875 -6.660156 8.269531 -6.179688 7.96875 -5.796875 C 7.664062 -5.421875 7.265625 -5.15625 6.765625 -5 Z M 3.234375 -5.8125 L 4.796875 -5.8125 C 5.179688 -5.8125 5.476562 -5.894531 5.6875 -6.0625 C 5.894531 -6.238281 6 -6.492188 6 -6.828125 C 6 -7.160156 5.894531 -7.414062 5.6875 -7.59375 C 5.476562 -7.769531 5.179688 -7.859375 4.796875 -7.859375 L 3.234375 -7.859375 Z M 5 -1.921875 C 5.394531 -1.921875 5.703125 -2.007812 5.921875 -2.1875 C 6.140625 -2.375 6.25 -2.632812 6.25 -2.96875 C 6.25 -3.3125 6.132812 -3.582031 5.90625 -3.78125 C 5.675781 -3.976562 5.363281 -4.078125 4.96875 -4.078125 L 3.234375 -4.078125 L 3.234375 -1.921875 Z M 5 -1.921875 "/></g></g></g><g fill="#d6bd9f" fill-opacity="1"><g transform="translate(46.931957, 15.683076)"><g><path d="M 0.390625 -3.890625 C 0.390625 -4.691406 0.539062 -5.390625 0.84375 -5.984375 C 1.144531 -6.585938 1.550781 -7.050781 2.0625 -7.375 C 2.582031 -7.707031 3.164062 -7.875 3.8125 -7.875 C 4.351562 -7.875 4.832031 -7.757812 5.25 -7.53125 C 5.664062 -7.3125 5.984375 -7.019531 6.203125 -6.65625 L 6.203125 -7.765625 L 8.578125 -7.765625 L 8.578125 0 L 6.203125 0 L 6.203125 -1.09375 C 5.972656 -0.738281 5.648438 -0.445312 5.234375 -0.21875 C 4.816406 0 4.335938 0.109375 3.796875 0.109375 C 3.160156 0.109375 2.582031 -0.0507812 2.0625 -0.375 C 1.550781 -0.707031 1.144531 -1.175781 0.84375 -1.78125 C 0.539062 -2.394531 0.390625 -3.097656 0.390625 -3.890625 Z M 6.203125 -3.875 C 6.203125 -4.46875 6.035156 -4.9375 5.703125 -5.28125 C 5.378906 -5.625 4.976562 -5.796875 4.5 -5.796875 C 4.03125 -5.796875 3.628906 -5.625 3.296875 -5.28125 C 2.972656 -4.945312 2.8125 -4.484375 2.8125 -3.890625 C 2.8125 -3.296875 2.972656 -2.820312 3.296875 -2.46875 C 3.628906 -2.125 4.03125 -1.953125 4.5 -1.953125 C 4.976562 -1.953125 5.378906 -2.125 5.703125 -2.46875 C 6.035156 -2.8125 6.203125 -3.28125 6.203125 -3.875 Z M 6.203125 -3.875 "/></g></g></g><g fill="#d6bd9f" fill-opacity="1"><g transform="translate(56.377328, 15.683076)"><g><path d="M 3.234375 -10.296875 L 3.234375 0 L 0.859375 0 L 0.859375 -10.296875 Z M 3.234375 -10.296875 "/></g></g></g><g fill="#d6bd9f" fill-opacity="1"><g transform="translate(60.48099, 15.683076)"><g><path d="M 0.390625 -3.890625 C 0.390625 -4.691406 0.539062 -5.390625 0.84375 -5.984375 C 1.144531 -6.585938 1.550781 -7.050781 2.0625 -7.375 C 2.582031 -7.707031 3.164062 -7.875 3.8125 -7.875 C 4.351562 -7.875 4.832031 -7.757812 5.25 -7.53125 C 5.664062 -7.3125 5.984375 -7.019531 6.203125 -6.65625 L 6.203125 -7.765625 L 8.578125 -7.765625 L 8.578125 0 L 6.203125 0 L 6.203125 -1.09375 C 5.972656 -0.738281 5.648438 -0.445312 5.234375 -0.21875 C 4.816406 0 4.335938 0.109375 3.796875 0.109375 C 3.160156 0.109375 2.582031 -0.0507812 2.0625 -0.375 C 1.550781 -0.707031 1.144531 -1.175781 0.84375 -1.78125 C 0.539062 -2.394531 0.390625 -3.097656 0.390625 -3.890625 Z M 6.203125 -3.875 C 6.203125 -4.46875 6.035156 -4.9375 5.703125 -5.28125 C 5.378906 -5.625 4.976562 -5.796875 4.5 -5.796875 C 4.03125 -5.796875 3.628906 -5.625 3.296875 -5.28125 C 2.972656 -4.945312 2.8125 -4.484375 2.8125 -3.890625 C 2.8125 -3.296875 2.972656 -2.820312 3.296875 -2.46875 C 3.628906 -2.125 4.03125 -1.953125 4.5 -1.953125 C 4.976562 -1.953125 5.378906 -2.125 5.703125 -2.46875 C 6.035156 -2.8125 6.203125 -3.28125 6.203125 -3.875 Z M 6.203125 -3.875 "/></g></g></g><g fill="#d6bd9f" fill-opacity="1"><g transform="translate(69.926361, 15.683076)"><g><path d="M 5.59375 -7.84375 C 6.5 -7.84375 7.222656 -7.546875 7.765625 -6.953125 C 8.304688 -6.367188 8.578125 -5.5625 8.578125 -4.53125 L 8.578125 0 L 6.21875 0 L 6.21875 -4.21875 C 6.21875 -4.738281 6.082031 -5.140625 5.8125 -5.421875 C 5.539062 -5.710938 5.179688 -5.859375 4.734375 -5.859375 C 4.273438 -5.859375 3.910156 -5.710938 3.640625 -5.421875 C 3.367188 -5.140625 3.234375 -4.738281 3.234375 -4.21875 L 3.234375 0 L 0.859375 0 L 0.859375 -7.765625 L 3.234375 -7.765625 L 3.234375 -6.734375 C 3.484375 -7.078125 3.8125 -7.347656 4.21875 -7.546875 C 4.625 -7.742188 5.082031 -7.84375 5.59375 -7.84375 Z M 5.59375 -7.84375 "/></g></g></g><g fill="#d6bd9f" fill-opacity="1"><g transform="translate(79.302177, 15.683076)"><g><path d="M 0.390625 -3.875 C 0.390625 -4.6875 0.550781 -5.390625 0.875 -5.984375 C 1.207031 -6.585938 1.664062 -7.050781 2.25 -7.375 C 2.84375 -7.707031 3.519531 -7.875 4.28125 -7.875 C 5.257812 -7.875 6.070312 -7.617188 6.71875 -7.109375 C 7.375 -6.597656 7.804688 -5.878906 8.015625 -4.953125 L 5.484375 -4.953125 C 5.265625 -5.546875 4.847656 -5.84375 4.234375 -5.84375 C 3.804688 -5.84375 3.460938 -5.671875 3.203125 -5.328125 C 2.941406 -4.992188 2.8125 -4.507812 2.8125 -3.875 C 2.8125 -3.25 2.941406 -2.765625 3.203125 -2.421875 C 3.460938 -2.085938 3.804688 -1.921875 4.234375 -1.921875 C 4.847656 -1.921875 5.265625 -2.21875 5.484375 -2.8125 L 8.015625 -2.8125 C 7.804688 -1.90625 7.375 -1.191406 6.71875 -0.671875 C 6.0625 -0.148438 5.25 0.109375 4.28125 0.109375 C 3.519531 0.109375 2.84375 -0.0507812 2.25 -0.375 C 1.664062 -0.695312 1.207031 -1.160156 0.875 -1.765625 C 0.550781 -2.367188 0.390625 -3.070312 0.390625 -3.875 Z M 0.390625 -3.875 "/></g></g></g><g fill="#d6bd9f" fill-opacity="1"><g transform="translate(87.718153, 15.683076)"><g><path d="M 8.171875 -4 C 8.171875 -3.78125 8.160156 -3.550781 8.140625 -3.3125 L 2.75 -3.3125 C 2.789062 -2.832031 2.945312 -2.460938 3.21875 -2.203125 C 3.488281 -1.953125 3.828125 -1.828125 4.234375 -1.828125 C 4.828125 -1.828125 5.238281 -2.078125 5.46875 -2.578125 L 8 -2.578125 C 7.863281 -2.066406 7.625 -1.601562 7.28125 -1.1875 C 6.945312 -0.78125 6.523438 -0.460938 6.015625 -0.234375 C 5.503906 -0.00390625 4.9375 0.109375 4.3125 0.109375 C 3.550781 0.109375 2.875 -0.0507812 2.28125 -0.375 C 1.6875 -0.695312 1.222656 -1.160156 0.890625 -1.765625 C 0.554688 -2.367188 0.390625 -3.070312 0.390625 -3.875 C 0.390625 -4.6875 0.550781 -5.390625 0.875 -5.984375 C 1.207031 -6.585938 1.671875 -7.050781 2.265625 -7.375 C 2.859375 -7.707031 3.539062 -7.875 4.3125 -7.875 C 5.0625 -7.875 5.726562 -7.710938 6.3125 -7.390625 C 6.894531 -7.078125 7.347656 -6.628906 7.671875 -6.046875 C 8.003906 -5.460938 8.171875 -4.78125 8.171875 -4 Z M 5.75 -4.625 C 5.75 -5.039062 5.609375 -5.367188 5.328125 -5.609375 C 5.046875 -5.847656 4.695312 -5.96875 4.28125 -5.96875 C 3.882812 -5.96875 3.546875 -5.847656 3.265625 -5.609375 C 2.992188 -5.378906 2.828125 -5.050781 2.765625 -4.625 Z M 5.75 -4.625 "/></g></g></g><g fill="#ffffff" fill-opacity="1"><g transform="translate(1.45516, 15.068305)"><g><path d="M 11.921875 -9.765625 L 11.921875 0 L 9.546875 0 L 9.546875 -5.859375 L 7.359375 0 L 5.4375 0 L 3.234375 -5.875 L 3.234375 0 L 0.859375 0 L 0.859375 -9.765625 L 3.671875 -9.765625 L 6.40625 -3 L 9.125 -9.765625 Z M 11.921875 -9.765625 "/></g></g></g><g fill="#ffffff" fill-opacity="1"><g transform="translate(14.225186, 15.068305)"><g><path d="M 2.0625 -8.5625 C 1.644531 -8.5625 1.300781 -8.679688 1.03125 -8.921875 C 0.769531 -9.171875 0.640625 -9.476562 0.640625 -9.84375 C 0.640625 -10.21875 0.769531 -10.523438 1.03125 -10.765625 C 1.300781 -11.015625 1.644531 -11.140625 2.0625 -11.140625 C 2.46875 -11.140625 2.800781 -11.015625 3.0625 -10.765625 C 3.332031 -10.523438 3.46875 -10.21875 3.46875 -9.84375 C 3.46875 -9.476562 3.332031 -9.171875 3.0625 -8.921875 C 2.800781 -8.679688 2.46875 -8.5625 2.0625 -8.5625 Z M 3.234375 -7.765625 L 3.234375 0 L 0.859375 0 L 0.859375 -7.765625 Z M 3.234375 -7.765625 "/></g></g></g><g fill="#ffffff" fill-opacity="1"><g transform="translate(18.328848, 15.068305)"><g><path d="M 5.59375 -7.84375 C 6.5 -7.84375 7.222656 -7.546875 7.765625 -6.953125 C 8.304688 -6.367188 8.578125 -5.5625 8.578125 -4.53125 L 8.578125 0 L 6.21875 0 L 6.21875 -4.21875 C 6.21875 -4.738281 6.082031 -5.140625 5.8125 -5.421875 C 5.539062 -5.710938 5.179688 -5.859375 4.734375 -5.859375 C 4.273438 -5.859375 3.910156 -5.710938 3.640625 -5.421875 C 3.367188 -5.140625 3.234375 -4.738281 3.234375 -4.21875 L 3.234375 0 L 0.859375 0 L 0.859375 -7.765625 L 3.234375 -7.765625 L 3.234375 -6.734375 C 3.484375 -7.078125 3.8125 -7.347656 4.21875 -7.546875 C 4.625 -7.742188 5.082031 -7.84375 5.59375 -7.84375 Z M 5.59375 -7.84375 "/></g></g></g><g fill="#ffffff" fill-opacity="1"><g transform="translate(27.704664, 15.068305)"><g><path d="M 0.390625 -3.890625 C 0.390625 -4.691406 0.539062 -5.390625 0.84375 -5.984375 C 1.144531 -6.585938 1.550781 -7.050781 2.0625 -7.375 C 2.582031 -7.707031 3.164062 -7.875 3.8125 -7.875 C 4.320312 -7.875 4.785156 -7.765625 5.203125 -7.546875 C 5.628906 -7.335938 5.960938 -7.050781 6.203125 -6.6875 L 6.203125 -10.296875 L 8.578125 -10.296875 L 8.578125 0 L 6.203125 0 L 6.203125 -1.109375 C 5.984375 -0.742188 5.664062 -0.445312 5.25 -0.21875 C 4.832031 0 4.351562 0.109375 3.8125 0.109375 C 3.164062 0.109375 2.582031 -0.0507812 2.0625 -0.375 C 1.550781 -0.707031 1.144531 -1.175781 0.84375 -1.78125 C 0.539062 -2.394531 0.390625 -3.097656 0.390625 -3.890625 Z M 6.203125 -3.875 C 6.203125 -4.46875 6.035156 -4.9375 5.703125 -5.28125 C 5.378906 -5.625 4.976562 -5.796875 4.5 -5.796875 C 4.03125 -5.796875 3.628906 -5.625 3.296875 -5.28125 C 2.972656 -4.945312 2.8125 -4.484375 2.8125 -3.890625 C 2.8125 -3.296875 2.972656 -2.820312 3.296875 -2.46875 C 3.628906 -2.125 4.03125 -1.953125 4.5 -1.953125 C 4.976562 -1.953125 5.378906 -2.125 5.703125 -2.46875 C 6.035156 -2.8125 6.203125 -3.28125 6.203125 -3.875 Z M 6.203125 -3.875 "/></g></g></g><g fill="#ffffff" fill-opacity="1"><g transform="translate(37.150035, 15.068305)"><g><path d="M 6.765625 -5 C 7.335938 -4.882812 7.796875 -4.601562 8.140625 -4.15625 C 8.484375 -3.71875 8.65625 -3.21875 8.65625 -2.65625 C 8.65625 -1.84375 8.367188 -1.195312 7.796875 -0.71875 C 7.222656 -0.238281 6.425781 0 5.40625 0 L 0.859375 0 L 0.859375 -9.765625 L 5.25 -9.765625 C 6.25 -9.765625 7.023438 -9.535156 7.578125 -9.078125 C 8.140625 -8.628906 8.421875 -8.015625 8.421875 -7.234375 C 8.421875 -6.660156 8.269531 -6.179688 7.96875 -5.796875 C 7.664062 -5.421875 7.265625 -5.15625 6.765625 -5 Z M 3.234375 -5.8125 L 4.796875 -5.8125 C 5.179688 -5.8125 5.476562 -5.894531 5.6875 -6.0625 C 5.894531 -6.238281 6 -6.492188 6 -6.828125 C 6 -7.160156 5.894531 -7.414062 5.6875 -7.59375 C 5.476562 -7.769531 5.179688 -7.859375 4.796875 -7.859375 L 3.234375 -7.859375 Z M 5 -1.921875 C 5.394531 -1.921875 5.703125 -2.007812 5.921875 -2.1875 C 6.140625 -2.375 6.25 -2.632812 6.25 -2.96875 C 6.25 -3.3125 6.132812 -3.582031 5.90625 -3.78125 C 5.675781 -3.976562 5.363281 -4.078125 4.96875 -4.078125 L 3.234375 -4.078125 L 3.234375 -1.921875 Z M 5 -1.921875 "/></g></g></g><g fill="#ffffff" fill-opacity="1"><g transform="translate(46.317186, 15.068305)"><g><path d="M 0.390625 -3.890625 C 0.390625 -4.691406 0.539062 -5.390625 0.84375 -5.984375 C 1.144531 -6.585938 1.550781 -7.050781 2.0625 -7.375 C 2.582031 -7.707031 3.164062 -7.875 3.8125 -7.875 C 4.351562 -7.875 4.832031 -7.757812 5.25 -7.53125 C 5.664062 -7.3125 5.984375 -7.019531 6.203125 -6.65625 L 6.203125 -7.765625 L 8.578125 -7.765625 L 8.578125 0 L 6.203125 0 L 6.203125 -1.09375 C 5.972656 -0.738281 5.648438 -0.445312 5.234375 -0.21875 C 4.816406 0 4.335938 0.109375 3.796875 0.109375 C 3.160156 0.109375 2.582031 -0.0507812 2.0625 -0.375 C 1.550781 -0.707031 1.144531 -1.175781 0.84375 -1.78125 C 0.539062 -2.394531 0.390625 -3.097656 0.390625 -3.890625 Z M 6.203125 -3.875 C 6.203125 -4.46875 6.035156 -4.9375 5.703125 -5.28125 C 5.378906 -5.625 4.976562 -5.796875 4.5 -5.796875 C 4.03125 -5.796875 3.628906 -5.625 3.296875 -5.28125 C 2.972656 -4.945312 2.8125 -4.484375 2.8125 -3.890625 C 2.8125 -3.296875 2.972656 -2.820312 3.296875 -2.46875 C 3.628906 -2.125 4.03125 -1.953125 4.5 -1.953125 C 4.976562 -1.953125 5.378906 -2.125 5.703125 -2.46875 C 6.035156 -2.8125 6.203125 -3.28125 6.203125 -3.875 Z M 6.203125 -3.875 "/></g></g></g><g fill="#ffffff" fill-opacity="1"><g transform="translate(55.762557, 15.068305)"><g><path d="M 3.234375 -10.296875 L 3.234375 0 L 0.859375 0 L 0.859375 -10.296875 Z M 3.234375 -10.296875 "/></g></g></g><g fill="#ffffff" fill-opacity="1"><g transform="translate(59.866219, 15.068305)"><g><path d="M 0.390625 -3.890625 C 0.390625 -4.691406 0.539062 -5.390625 0.84375 -5.984375 C 1.144531 -6.585938 1.550781 -7.050781 2.0625 -7.375 C 2.582031 -7.707031 3.164062 -7.875 3.8125 -7.875 C 4.351562 -7.875 4.832031 -7.757812 5.25 -7.53125 C 5.664062 -7.3125 5.984375 -7.019531 6.203125 -6.65625 L 6.203125 -7.765625 L 8.578125 -7.765625 L 8.578125 0 L 6.203125 0 L 6.203125 -1.09375 C 5.972656 -0.738281 5.648438 -0.445312 5.234375 -0.21875 C 4.816406 0 4.335938 0.109375 3.796875 0.109375 C 3.160156 0.109375 2.582031 -0.0507812 2.0625 -0.375 C 1.550781 -0.707031 1.144531 -1.175781 0.84375 -1.78125 C 0.539062 -2.394531 0.390625 -3.097656 0.390625 -3.890625 Z M 6.203125 -3.875 C 6.203125 -4.46875 6.035156 -4.9375 5.703125 -5.28125 C 5.378906 -5.625 4.976562 -5.796875 4.5 -5.796875 C 4.03125 -5.796875 3.628906 -5.625 3.296875 -5.28125 C 2.972656 -4.945312 2.8125 -4.484375 2.8125 -3.890625 C 2.8125 -3.296875 2.972656 -2.820312 3.296875 -2.46875 C 3.628906 -2.125 4.03125 -1.953125 4.5 -1.953125 C 4.976562 -1.953125 5.378906 -2.125 5.703125 -2.46875 C 6.035156 -2.8125 6.203125 -3.28125 6.203125 -3.875 Z M 6.203125 -3.875 "/></g></g></g><g fill="#ffffff" fill-opacity="1"><g transform="translate(69.31159, 15.068305)"><g><path d="M 5.59375 -7.84375 C 6.5 -7.84375 7.222656 -7.546875 7.765625 -6.953125 C 8.304688 -6.367188 8.578125 -5.5625 8.578125 -4.53125 L 8.578125 0 L 6.21875 0 L 6.21875 -4.21875 C 6.21875 -4.738281 6.082031 -5.140625 5.8125 -5.421875 C 5.539062 -5.710938 5.179688 -5.859375 4.734375 -5.859375 C 4.273438 -5.859375 3.910156 -5.710938 3.640625 -5.421875 C 3.367188 -5.140625 3.234375 -4.738281 3.234375 -4.21875 L 3.234375 0 L 0.859375 0 L 0.859375 -7.765625 L 3.234375 -7.765625 L 3.234375 -6.734375 C 3.484375 -7.078125 3.8125 -7.347656 4.21875 -7.546875 C 4.625 -7.742188 5.082031 -7.84375 5.59375 -7.84375 Z M 5.59375 -7.84375 "/></g></g></g><g fill="#ffffff" fill-opacity="1"><g transform="translate(78.687406, 15.068305)"><g><path d="M 0.390625 -3.875 C 0.390625 -4.6875 0.550781 -5.390625 0.875 -5.984375 C 1.207031 -6.585938 1.664062 -7.050781 2.25 -7.375 C 2.84375 -7.707031 3.519531 -7.875 4.28125 -7.875 C 5.257812 -7.875 6.070312 -7.617188 6.71875 -7.109375 C 7.375 -6.597656 7.804688 -5.878906 8.015625 -4.953125 L 5.484375 -4.953125 C 5.265625 -5.546875 4.847656 -5.84375 4.234375 -5.84375 C 3.804688 -5.84375 3.460938 -5.671875 3.203125 -5.328125 C 2.941406 -4.992188 2.8125 -4.507812 2.8125 -3.875 C 2.8125 -3.25 2.941406 -2.765625 3.203125 -2.421875 C 3.460938 -2.085938 3.804688 -1.921875 4.234375 -1.921875 C 4.847656 -1.921875 5.265625 -2.21875 5.484375 -2.8125 L 8.015625 -2.8125 C 7.804688 -1.90625 7.375 -1.191406 6.71875 -0.671875 C 6.0625 -0.148438 5.25 0.109375 4.28125 0.109375 C 3.519531 0.109375 2.84375 -0.0507812 2.25 -0.375 C 1.664062 -0.695312 1.207031 -1.160156 0.875 -1.765625 C 0.550781 -2.367188 0.390625 -3.070312 0.390625 -3.875 Z M 0.390625 -3.875 "/></g></g></g><g fill="#ffffff" fill-opacity="1"><g transform="translate(87.103382, 15.068305)"><g><path d="M 8.171875 -4 C 8.171875 -3.78125 8.160156 -3.550781 8.140625 -3.3125 L 2.75 -3.3125 C 2.789062 -2.832031 2.945312 -2.460938 3.21875 -2.203125 C 3.488281 -1.953125 3.828125 -1.828125 4.234375 -1.828125 C 4.828125 -1.828125 5.238281 -2.078125 5.46875 -2.578125 L 8 -2.578125 C 7.863281 -2.066406 7.625 -1.601562 7.28125 -1.1875 C 6.945312 -0.78125 6.523438 -0.460938 6.015625 -0.234375 C 5.503906 -0.00390625 4.9375 0.109375 4.3125 0.109375 C 3.550781 0.109375 2.875 -0.0507812 2.28125 -0.375 C 1.6875 -0.695312 1.222656 -1.160156 0.890625 -1.765625 C 0.554688 -2.367188 0.390625 -3.070312 0.390625 -3.875 C 0.390625 -4.6875 0.550781 -5.390625 0.875 -5.984375 C 1.207031 -6.585938 1.671875 -7.050781 2.265625 -7.375 C 2.859375 -7.707031 3.539062 -7.875 4.3125 -7.875 C 5.0625 -7.875 5.726562 -7.710938 6.3125 -7.390625 C 6.894531 -7.078125 7.347656 -6.628906 7.671875 -6.046875 C 8.003906 -5.460938 8.171875 -4.78125 8.171875 -4 Z M 5.75 -4.625 C 5.75 -5.039062 5.609375 -5.367188 5.328125 -5.609375 C 5.046875 -5.847656 4.695312 -5.96875 4.28125 -5.96875 C 3.882812 -5.96875 3.546875 -5.847656 3.265625 -5.609375 C 2.992188 -5.378906 2.828125 -5.050781 2.765625 -4.625 Z M 5.75 -4.625 "/></g></g></g></g></g><g clip-path="url(#4d96d8dcd8)"><g clip-path="url(#b05ee26c15)"><g transform="matrix(1, 0, 0, 1, 4, 10)"><g clip-path="url(#32c512d3cd)"><g clip-path="url(#68d3b223ea)"><g clip-path="url(#97767ee00e)"><path fill="#ffffff" d="M 0.488281 0.546875 L 15.5625 0.546875 L 15.5625 16.445312 L 0.488281 16.445312 Z M 0.488281 0.546875 " fill-opacity="1" fill-rule="nonzero"/></g></g></g></g></g></g></svg>